<svg width="339" height="37" viewBox="0 0 339 37" fill="none" xmlns="http://www.w3.org/2000/svg">
<path d="M295.618 36.2851L307.211 8.43306C307.988 6.53737 309.106 5.07915 310.565 4.05839C312.023 2.98903 314.307 2.45435 317.418 2.45435C319.995 2.45435 322.085 2.94042 323.689 3.91257C325.293 4.88472 326.508 6.39155 327.334 8.43306L339 36.2851H326.022L322.887 28.7753H307.721L304.805 36.2851H295.618ZM309.617 24.1819H320.699L316.762 13.9743C316.616 13.5855 316.446 13.2452 316.252 12.9536C316.057 12.6133 315.717 12.4432 315.231 12.4432C314.696 12.4432 314.307 12.6133 314.064 12.9536C313.87 13.2452 313.7 13.5855 313.554 13.9743L309.617 24.1819Z" fill="#FF6A2E"/>
<path d="M279.122 36.2851C279.122 31.3272 279.122 26.3692 279.122 21.4112C279.122 16.4533 279.122 11.4953 279.122 6.53735C279.122 5.71103 279.17 5.03052 279.268 4.49584C279.413 3.91255 279.754 3.47508 280.288 3.18344C280.872 2.89179 281.795 2.74597 283.059 2.74597H291.079V36.2851H279.122Z" fill="#FF6A2E"/>
<path d="M257.432 36.431C252.863 36.431 248.925 36.431 245.62 36.431C242.315 36.431 239.544 36.431 237.308 36.431C235.072 36.431 233.177 36.3824 231.621 36.2852V6.09996C231.621 4.69034 231.913 3.7911 232.496 3.40224C233.128 2.96478 233.979 2.74604 235.048 2.74604C237.138 2.74604 238.912 2.74604 240.371 2.74604C241.877 2.69744 243.165 2.67313 244.235 2.67313C245.304 2.62452 246.325 2.60022 247.297 2.60022C248.269 2.60022 249.314 2.60022 250.432 2.60022C251.793 2.60022 253.276 2.62452 254.88 2.67313C256.533 2.67313 258.064 2.67313 259.473 2.67313C260.932 2.67313 261.977 2.69744 262.608 2.74604C265.282 2.94047 267.299 3.66958 268.66 4.93338C270.021 6.19717 270.702 8.19008 270.702 10.9121C270.702 12.8564 270.361 14.3875 269.681 15.5055C269.049 16.5749 268.247 17.3526 267.275 17.8387C266.303 18.2761 265.306 18.5192 264.285 18.5678C265.549 18.5678 266.643 18.6893 267.566 18.9323C268.539 19.1754 269.341 19.5885 269.973 20.1718C270.604 20.7065 271.09 21.5085 271.431 22.5779C271.771 23.6473 271.941 24.984 271.941 26.588C271.941 28.7753 271.649 30.5252 271.066 31.8376C270.532 33.1014 269.681 34.0736 268.514 34.7541C267.348 35.386 265.841 35.8234 263.994 36.0665C262.147 36.3095 259.959 36.431 257.432 36.431ZM253.568 30.7439C254.54 30.7439 255.415 30.7196 256.192 30.671C256.97 30.6224 257.626 30.4766 258.161 30.2336C258.744 29.9419 259.182 29.4802 259.473 28.8483C259.814 28.1677 259.984 27.2442 259.984 26.0776C259.984 24.425 259.643 23.2827 258.963 22.6508C258.282 22.0189 256.873 21.703 254.734 21.703H244.599C243.676 21.703 243.093 21.2655 242.85 20.3906C242.655 19.467 242.558 18.1303 242.558 16.3804H254.37C255.196 16.3804 255.925 16.2832 256.557 16.0888C257.237 15.8944 257.748 15.4812 258.088 14.8493C258.477 14.1688 258.671 13.148 258.671 11.787C258.671 10.426 258.404 9.40527 257.869 8.72476C257.335 8.04426 256.46 7.6797 255.244 7.6311C254.613 7.58249 253.883 7.55818 253.057 7.55818C252.279 7.55818 251.502 7.55818 250.724 7.55818C249.8 7.55818 248.877 7.55818 247.953 7.55818C247.078 7.55818 246.276 7.55818 245.547 7.55818C244.964 7.55818 244.478 7.72831 244.089 8.06856C243.749 8.40881 243.579 8.91919 243.579 9.59969V30.7439C244.356 30.7439 244.964 30.7439 245.401 30.7439C245.888 30.7439 246.398 30.7439 246.933 30.7439C247.467 30.7439 248.221 30.7439 249.193 30.7439C250.214 30.7439 251.672 30.7439 253.568 30.7439Z" fill="#171738"/>
<path d="M205.424 24.9839C205.424 24.9839 204.938 24.9839 203.966 24.9839C203.043 24.9839 201.852 25.0082 200.394 25.0568C198.935 25.0568 197.428 25.0568 195.873 25.0568V36.2851H183.916V7.19355C183.916 5.78393 184.232 4.69026 184.863 3.91254C185.495 3.13482 186.783 2.74597 188.728 2.74597C189.457 2.74597 190.551 2.74597 192.009 2.74597C193.467 2.69736 195.144 2.67305 197.04 2.67305C198.935 2.67305 200.88 2.67305 202.872 2.67305C204.914 2.62444 206.858 2.62444 208.705 2.67305C210.552 2.67305 212.157 2.69736 213.518 2.74597C214.927 2.74597 215.948 2.77027 216.58 2.81888C219.205 3.06191 221.173 3.86393 222.486 5.22494C223.798 6.53735 224.454 8.70038 224.454 11.714C224.454 14.4361 224.235 16.429 223.798 17.6928C223.409 18.9079 222.753 19.8558 221.829 20.5363C221.489 20.7793 221.027 20.9738 220.444 21.1196C219.861 21.2654 219.205 21.3383 218.475 21.3383V21.63C218.816 21.63 219.18 21.63 219.569 21.63C220.007 21.63 220.371 21.6543 220.663 21.7029C222.51 22.0431 223.604 22.7479 223.944 23.8173C224.333 24.8867 224.527 26.0046 224.527 27.1712V33.5874C224.527 34.5109 224.624 35.1914 224.819 35.6289C225.013 36.0178 225.135 36.2365 225.183 36.2851H216.288C215.024 36.2851 214.028 36.0907 213.299 35.7018C212.618 35.313 212.278 34.4866 212.278 33.2228V28.4107C212.278 26.9039 211.938 25.956 211.257 25.5672C210.625 25.1783 209.483 24.9839 207.83 24.9839H205.424ZM195.873 19.2968C196.408 19.2968 197.21 19.3211 198.279 19.3697C199.397 19.3697 200.612 19.3697 201.925 19.3697C203.237 19.3697 204.428 19.3697 205.497 19.3697C206.615 19.3697 207.417 19.3697 207.903 19.3697C209.07 19.3697 210.091 19.0052 210.966 18.2761C211.889 17.4983 212.351 16.0644 212.351 13.9743C212.351 12.5161 212.084 11.3738 211.549 10.5475C211.063 9.72114 210.237 9.25937 209.07 9.16215C208.389 9.01633 207.466 8.94342 206.299 8.94342C205.181 8.94342 203.99 8.94342 202.727 8.94342C201.511 8.94342 200.394 8.96772 199.373 9.01633C198.352 9.01633 197.599 9.01633 197.113 9.01633C197.015 9.01633 196.772 9.08924 196.383 9.23506C196.043 9.38088 195.873 9.74544 195.873 10.3287V19.2968Z" fill="#171738"/>
<path d="M156.045 36.7954C152.157 36.7954 148.851 36.5281 146.129 35.9934C143.407 35.4587 141.171 34.5595 139.422 33.2957C137.72 31.9833 136.456 30.2091 135.63 27.9732C134.852 25.7372 134.464 22.918 134.464 19.5155C134.464 16.0157 134.877 13.1722 135.703 10.9849C136.529 8.74891 137.817 6.99904 139.567 5.73525C141.366 4.42285 143.626 3.4993 146.348 2.96462C149.119 2.42994 152.424 2.1626 156.264 2.1626C160.104 2.1626 163.385 2.42994 166.107 2.96462C168.829 3.4993 171.041 4.42285 172.742 5.73525C174.492 6.99904 175.756 8.74891 176.533 10.9849C177.36 13.2208 177.773 16.0643 177.773 19.5155C177.773 22.9666 177.36 25.8101 176.533 28.0461C175.707 30.282 174.419 32.0562 172.669 33.3686C170.919 34.6324 168.659 35.5316 165.888 36.0663C163.166 36.5524 159.885 36.7954 156.045 36.7954ZM156.118 30.598C157.722 30.598 159.108 30.4521 160.274 30.1605C161.489 29.8203 162.461 29.237 163.191 28.4106C163.968 27.5843 164.527 26.4663 164.868 25.0567C165.256 23.5985 165.451 21.7514 165.451 19.5155C165.451 17.2309 165.256 15.3838 164.868 13.9742C164.527 12.516 163.968 11.398 163.191 10.6203C162.461 9.79397 161.489 9.23499 160.274 8.94334C159.108 8.60309 157.722 8.43296 156.118 8.43296C154.466 8.43296 153.032 8.60309 151.816 8.94334C150.65 9.23499 149.702 9.79397 148.973 10.6203C148.244 11.398 147.685 12.516 147.296 13.9742C146.907 15.3838 146.713 17.2309 146.713 19.5155C146.713 21.7514 146.907 23.5985 147.296 25.0567C147.685 26.4663 148.244 27.5843 148.973 28.4106C149.702 29.237 150.65 29.8203 151.816 30.1605C153.032 30.4521 154.466 30.598 156.118 30.598Z" fill="#171738"/>
<path d="M48.0701 36.2851V6.53735C48.0701 4.98191 48.3375 3.96116 48.8722 3.47508C49.4068 2.98901 50.4519 2.74597 52.0073 2.74597H85.6923V9.01633H60.0276V16.0158H83.3592V22.2133H60.0276V30.0148H85.6923V36.2851H48.0701Z" fill="#171738"/>
<path d="M21.5088 24.9839C21.5088 24.9839 21.0227 24.9839 20.0506 24.9839C19.127 24.9839 17.9362 25.0082 16.4779 25.0568C15.0197 25.0568 13.5129 25.0568 11.9574 25.0568V36.2851H0V7.19355C0 5.78393 0.315949 4.69026 0.947846 3.91254C1.57974 3.13482 2.86784 2.74597 4.81214 2.74597C5.54125 2.74597 6.63492 2.74597 8.09314 2.74597C9.55137 2.69736 11.2283 2.67305 13.124 2.67305C15.0197 2.67305 16.964 2.67305 18.9569 2.67305C20.9984 2.62444 22.9427 2.62444 24.7898 2.67305C26.6369 2.67305 28.2409 2.69736 29.6019 2.74597C31.0116 2.74597 32.0323 2.77027 32.6642 2.81888C35.289 3.06191 37.2576 3.86393 38.57 5.22494C39.8824 6.53735 40.5386 8.70038 40.5386 11.714C40.5386 14.4361 40.3199 16.429 39.8824 17.6928C39.4936 18.9079 38.8374 19.8558 37.9138 20.5363C37.5736 20.7793 37.1118 20.9738 36.5285 21.1196C35.9452 21.2654 35.289 21.3383 34.5599 21.3383V21.63C34.9002 21.63 35.2647 21.63 35.6536 21.63C36.091 21.63 36.4556 21.6543 36.7472 21.7029C38.5943 22.0431 39.688 22.7479 40.0283 23.8173C40.4171 24.8867 40.6115 26.0046 40.6115 27.1712V33.5874C40.6115 34.5109 40.7088 35.1914 40.9032 35.6289C41.0976 36.0178 41.2191 36.2365 41.2677 36.2851H32.3726C31.1088 36.2851 30.1123 36.0907 29.3832 35.7018C28.7027 35.313 28.3625 34.4866 28.3625 33.2228V28.4107C28.3625 26.9039 28.0222 25.956 27.3417 25.5672C26.7098 25.1783 25.5675 24.9839 23.9149 24.9839H21.5088ZM11.9574 19.2968C12.4921 19.2968 13.2941 19.3211 14.3635 19.3697C15.4815 19.3697 16.6967 19.3697 18.0091 19.3697C19.3215 19.3697 20.5124 19.3697 21.5817 19.3697C22.6997 19.3697 23.5017 19.3697 23.9878 19.3697C25.1544 19.3697 26.1751 19.0052 27.0501 18.2761C27.9736 17.4983 28.4354 16.0644 28.4354 13.9743C28.4354 12.5161 28.168 11.3738 27.6333 10.5475C27.1473 9.72114 26.3209 9.25937 25.1544 9.16215C24.4739 9.01633 23.5503 8.94342 22.3837 8.94342C21.2658 8.94342 20.0749 8.94342 18.8111 8.94342C17.5959 8.94342 16.4779 8.96772 15.4572 9.01633C14.4364 9.01633 13.683 9.01633 13.1969 9.01633C13.0997 9.01633 12.8567 9.08924 12.4678 9.23506C12.1276 9.38088 11.9574 9.74544 11.9574 10.3287V19.2968Z" fill="#171738"/>
<path d="M125.449 1.29429C125.974 0.834587 126.441 0.477038 126.85 0.221645C127.287 -0.00820791 127.754 -0.059288 128.25 0.0684081C128.746 0.196105 129.388 0.604733 130.176 1.29429L134.99 5.50828L120.153 18.495L134.859 31.3668L130.045 35.5808C129.257 36.2703 128.615 36.679 128.119 36.8067C127.623 36.9344 127.156 36.8833 126.718 36.6534C126.31 36.398 125.843 36.0405 125.318 35.5808L105.798 18.495L125.449 1.29429Z" fill="#FF6A2E" fill-opacity="0.6"/>
<path d="M92.011 36.4115C92.011 31.247 92.011 26.0825 92.011 20.9179C92.011 15.7534 92.011 10.5889 92.011 5.42432C92.011 4.56357 92.0617 3.85471 92.1629 3.29775C92.3148 2.69016 92.6693 2.23446 93.2262 1.93067C93.8338 1.62687 94.7958 1.47498 96.1123 1.47498H104.467V36.4115H92.011Z" fill="#171738"/>
<path d="M119.549 1.29429C120.074 0.834587 120.541 0.477038 120.95 0.221645C121.387 -0.00820791 121.854 -0.059288 122.35 0.0684081C122.846 0.196105 123.488 0.604733 124.276 1.29429L129.09 5.50828L114.253 18.495L128.959 31.3668L124.145 35.5808C123.357 36.2703 122.715 36.679 122.219 36.8067C121.723 36.9344 121.256 36.8833 120.818 36.6534C120.41 36.398 119.943 36.0405 119.418 35.5808L99.8977 18.495L119.549 1.29429Z" fill="#FF6A2E"/>
</svg>
